<svg width="152" height="41" viewBox="0 0 152 41" fill="none" xmlns="http://www.w3.org/2000/svg">
<mask id="mask0_104_50" style="mask-type:luminance" maskUnits="userSpaceOnUse" x="0" y="0" width="152" height="41">
<path d="M151.318 0H0V41H151.318V0Z" fill="white"/>
</mask>
<g mask="url(#mask0_104_50)">
<path d="M9.16405 0.0503229V2.17134C8.79252 2.12724 8.41884 2.10606 8.04499 2.10797C4.08857 2.10797 1.99847 4.91487 1.99847 10.2249V15.6169H5.66409V17.6055H1.99142V40.8789H0V9.98443C0 6.56992 0.837101 3.87858 2.41965 2.20303C3.80133 0.745523 5.69052 0 8.03792 0C8.44679 0 8.81158 0.0167743 9.16405 0.0503229Z" fill="#282828"/>
<path d="M105.026 0.132263H103.034V40.9721H105.026V0.132263Z" fill="#282828"/>
<path d="M120.47 5.49116C120.212 5.15144 120.02 4.76083 119.906 4.34203C119.792 3.92325 119.758 3.48464 119.805 3.05173C119.853 2.61881 119.981 2.20025 120.183 1.82035C120.385 1.44045 120.657 1.10682 120.982 0.83884C121.307 0.570867 121.679 0.373903 122.076 0.259404C122.474 0.144908 122.889 0.115163 123.298 0.171898C123.706 0.228633 124.1 0.370718 124.457 0.58989C124.813 0.809061 125.124 1.10094 125.373 1.44856L134.184 13.3769C134.251 13.4683 134.327 13.5633 134.401 13.6472C133.322 13.8335 132.304 14.3037 131.442 15.0147C130.58 15.7257 129.901 16.6546 129.467 17.7159C129.411 17.613 129.348 17.5145 129.278 17.4214L120.47 5.49116Z" fill="#282828"/>
<path d="M150.656 35.6714C150.915 36.0105 151.108 36.4009 151.223 36.8196C151.339 37.2385 151.374 37.6773 151.328 38.1107C151.281 38.5442 151.153 38.9635 150.952 39.3441C150.75 39.7248 150.479 40.0594 150.155 40.3281C149.83 40.597 149.458 40.7948 149.06 40.91C148.662 41.0253 148.247 41.0556 147.838 40.9992C147.428 40.943 147.034 40.8012 146.677 40.5821C146.321 40.363 146.009 40.0712 145.76 39.7234L136.949 27.7949C136.804 27.5953 136.635 27.4168 136.446 27.2638C137.55 27.0849 138.593 26.6093 139.473 25.8822C140.354 25.155 141.043 24.2009 141.474 23.1111C141.574 23.335 141.697 23.5463 141.841 23.7411L150.656 35.6714Z" fill="#282828"/>
<path d="M134.627 27.3089C134.465 27.4511 134.319 27.6116 134.19 27.7877L125.379 39.7162C124.87 40.4037 124.125 40.8496 123.306 40.956C122.487 41.0622 121.662 40.8202 121.012 40.2827C120.361 39.7455 119.94 38.9569 119.839 38.0909C119.739 37.2248 119.968 36.3519 120.476 35.6643L129.287 23.7358C129.374 23.6175 129.452 23.493 129.522 23.3631C129.987 24.4244 130.701 25.3427 131.595 26.0311C132.489 26.7195 133.535 27.1555 134.632 27.2975" fill="#282828"/>
<path d="M136.661 13.7101C136.763 13.6084 136.858 13.4988 136.945 13.382L145.756 1.45366C146.007 1.11381 146.319 0.829598 146.674 0.617247C147.029 0.404896 147.42 0.268564 147.825 0.216037C148.23 0.16351 148.64 0.195816 149.033 0.311111C149.426 0.426404 149.794 0.62243 150.115 0.887993C150.436 1.15356 150.705 1.48346 150.906 1.85886C151.107 2.23427 151.236 2.64783 151.285 3.07591C151.335 3.50399 151.305 3.93824 151.195 4.35385C151.087 4.76944 150.901 5.15829 150.65 5.49812L141.838 17.4265C141.71 17.6001 141.6 17.7875 141.509 17.9856C141.109 16.8976 140.454 15.9349 139.605 15.1878C138.757 14.4406 137.743 13.9334 136.659 13.7138" fill="#282828"/>
<path d="M139.664 20.5817C139.664 21.4393 139.424 22.2777 138.974 22.9908C138.523 23.7039 137.883 24.26 137.134 24.5883C136.385 24.9167 135.561 25.0028 134.766 24.8359C133.971 24.6687 133.24 24.256 132.666 23.6497C132.093 23.0435 131.702 22.2711 131.544 21.4301C131.386 20.5891 131.467 19.7173 131.777 18.925C132.087 18.1328 132.613 17.4556 133.287 16.9791C133.961 16.5027 134.754 16.2484 135.565 16.2484C136.651 16.2484 137.694 16.7049 138.462 17.5175C139.231 18.3301 139.663 19.4323 139.664 20.5817Z" fill="#FF8500"/>
<path d="M23.0548 15.4567C16.2205 15.4567 11.071 20.9475 11.071 28.2295V28.3225C11.071 35.5505 16.2241 40.9964 23.0548 40.9964C29.8855 40.9964 35.0386 35.5075 35.0386 28.2257V28.1436C35.0386 20.9158 29.8839 15.4698 23.0548 15.4698V15.4567ZM33.1318 28.1829V28.2761C33.1318 34.4265 28.8194 39.0692 23.1024 39.0692C17.4295 39.0692 12.9849 34.3277 12.9849 28.2761V28.1829C12.9849 22.0323 17.2955 17.3895 23.0124 17.3895C28.6873 17.3895 33.1318 22.1311 33.1318 28.1829Z" fill="#282828"/>
<path d="M91.5792 18.2279C89.8645 16.4145 87.3584 15.4956 84.1317 15.4956C81.43 15.4956 78.9663 16.1498 76.1432 17.6166L75.7394 17.8272L76.4763 19.5792L76.9114 19.3574C79.5302 18.0248 81.7437 17.4302 84.0875 17.4302C89.2777 17.4302 92.018 20.1533 92.018 25.3047V26.5853C89.4621 25.7515 86.8028 25.3261 84.1281 25.3235C77.8208 25.3235 73.7428 28.4547 73.7428 33.2969V33.3919C73.7428 38.5808 78.2967 40.9422 82.528 40.9422C87.2281 40.9422 90.4584 38.6105 92.018 36.3088V41.0038H93.8913V25.2563C93.8913 22.2613 93.0914 19.8308 91.5758 18.2279H91.5792ZM92.018 28.6131V31.2765C92.018 34.9948 88.4072 39.0075 82.5721 39.0075C79.384 39.0075 75.662 37.5259 75.662 33.3453V33.2503C75.662 28.833 80.0591 27.26 84.1739 27.26C87.0994 27.26 89.5949 27.6905 92.018 28.6131Z" fill="#282828"/>
<path d="M55.9328 17.4267C58.0125 17.4036 60.0438 18.0899 61.7256 19.3837L61.7573 19.4079H64.6087L64.3955 19.1973C62.843 17.6112 60.2786 15.4995 55.9751 15.4995C49.4739 15.4995 44.1816 21.1991 44.1816 28.2032V28.2926C44.1816 35.3025 49.4545 41.0038 55.9328 41.0038C59.2089 41.0038 61.9758 39.7776 64.392 37.2538L64.5982 37.0377H61.7644L61.7327 37.062C60.0757 38.3846 58.051 39.09 55.9751 39.0674C50.5295 39.0674 46.1062 34.2215 46.1062 28.248V28.1586C46.1062 22.1422 50.4256 17.4304 55.9398 17.4304" fill="#282828"/>
</g>
</svg>
