<svg width="17" height="13" viewBox="0 0 17 13" fill="none" xmlns="http://www.w3.org/2000/svg">
<path d="M5.3125 5.0834C5.3125 4.79121 5.55156 4.55215 5.84375 4.55215H10.625V1.43437C10.625 1.19863 10.9105 1.0791 11.0766 1.24512L15.7781 5.99648C15.9873 6.20566 15.9873 6.54102 15.7781 6.7502L11.0766 11.5016C10.9105 11.6676 10.625 11.5514 10.625 11.3123V8.19453H5.84375C5.55156 8.19453 5.3125 7.95547 5.3125 7.66328V5.0834ZM4.25 5.0834V7.66328C4.25 8.54316 4.96387 9.25703 5.84375 9.25703H9.5625V11.3123C9.5625 12.491 10.9902 13.0887 11.827 12.252L16.5318 7.50391C17.1561 6.87969 17.1561 5.87031 16.5318 5.24609L11.827 0.494727C10.9936 -0.338672 9.5625 0.252344 9.5625 1.43437V3.48965H5.84375C4.96387 3.48965 4.25 4.20684 4.25 5.0834ZM0 1.59375V11.1562C0 12.0361 0.713867 12.75 1.59375 12.75H5.97656C6.1957 12.75 6.375 12.5707 6.375 12.3516V12.0859C6.375 11.8668 6.1957 11.6875 5.97656 11.6875H1.59375C1.30156 11.6875 1.0625 11.4484 1.0625 11.1562V1.59375C1.0625 1.30156 1.30156 1.0625 1.59375 1.0625H5.97656C6.1957 1.0625 6.375 0.883203 6.375 0.664062V0.398438C6.375 0.179297 6.1957 0 5.97656 0H1.59375C0.713867 0 0 0.713867 0 1.59375Z" fill="black"/>
</svg>
